# xmcd
# 
# Track frame offsets:
#     150
#     15833
#     40428
#     66508
#     86978
#     112825
#     150285
#     177883
#     194988
#     208700
#     224313
#     238708
#     257440
# 
# Disc length: 3929
# 
# Revision: 49
# Processed by: cddbd v1.5.2PL0 Copyright (c) Steve Scherf et al.
# Submitted via: fre:ac v1.1beta1pre4
# 
DISCID=b30f570d
DTITLE=Various / Singles - Original Motion Picture Soundtrack
DYEAR=1992
DGENRE=Soundtrack
TTITLE0=Alice in Chains / Would?
TTITLE1=Pearl Jam / Breath
TTITLE2=Chris Cornell / Seasons
TTITLE3=Paul Westerberg / Dyslexic Heart
TTITLE4=The Lovemongers / Battle Of Evermore
TTITLE5=Mother Love Bone / Chloe Dancer / Crown Of Thorns
TTITLE6=Soundgarden / Birth Ritual
TTITLE7=Pearl Jam / tate Of Love And Trust
TTITLE8=Mudhoney / Overblown
TTITLE9=Paul Westerberg / Waiting For Somebody
TTITLE10=Jimi Hendrix / May This Be Love
TTITLE11=Screaming Trees / Nearly Lost You
TTITLE12=Smashing Pumpkins / Drown
EXTD=
EXTT0=
EXTT1=
EXTT2=
EXTT3=
EXTT4=
EXTT5=
EXTT6=
EXTT7=
EXTT8=
EXTT9=
EXTT10=
EXTT11=
EXTT12=
PLAYORDER=
.
